<?xml version="1.0" encoding="utf-8"?>
<!-- Generator: Adobe Illustrator 20.1.0, SVG Export Plug-In . SVG Version: 6.00 Build 0)  -->
<svg version="1.1" id="Layer_1" xmlns="http://www.w3.org/2000/svg" xmlns:xlink="http://www.w3.org/1999/xlink" x="0px" y="0px"
	 viewBox="0 0 121 111" enable-background="new 0 0 121 111" xml:space="preserve">
<g>
	<path fill="#6445A3" d="M121,73c-5.3,12.5-9.3,15.1-23.1,15.1c-13.2,0-26.3,0.1-39.5-0.1c-3.2,0-4.8,0.9-5.8,4
		c-1.7,5-3.7,10-6,14.8c-0.9,1.8-3.2,4.3-4.6,4.2c-1.9-0.2-4.1-2.5-5-4.4c-2.4-4.8-4.2-9.8-6-14.8c-1-2.8-2.4-4.2-5.5-3.7
		c-0.8,0.1-1.7,0-2.5,0C9.3,88.1,5.3,85.5,0,73c0-17.7,0-35.3,0-53C3.8,8.6,11.7,4.5,23.6,4.7c24.6,0.5,49.2,0.5,73.8,0
		C109.3,4.5,117.2,8.6,121,20C121,37.7,121,55.3,121,73z M41.9,94.8c1.5-3.5,2.6-5.8,3.3-8.1c1.5-5.7,4.8-7.8,10.9-7.6
		c15.1,0.4,30.3,0.2,45.5,0.1c6.2,0,10.2-3.4,10.3-9.1c0.2-15.7,0.2-31.3,0-47c-0.1-5.4-4-9-9.3-9c-28-0.1-56-0.1-84,0
		c-5.4,0-9.3,3.6-9.4,9C9,38.7,9,54.3,9.2,70c0.1,5.6,4,9,9.8,9.2c3.8,0.1,7.7,0.1,11.5,0c3.7-0.1,5.9,1.4,7.1,4.9
		C38.7,87.3,40.1,90.5,41.9,94.8z"/>
	<path fill="#FFFFFF" d="M121,20C117.2,8.6,109.3,4.5,97.4,4.7c-24.6,0.5-49.2,0.5-73.8,0C11.7,4.5,3.8,8.6,0,20C0,13.3,0,6.7,0,0
		c40.3,0,80.7,0,121,0C121,6.7,121,13.3,121,20z"/>
	<path fill="#FFFFFF" d="M41.9,94.8c-1.8-4.3-3.2-7.4-4.3-10.7c-1.2-3.5-3.4-5.1-7.1-4.9c-3.8,0.1-7.7,0.1-11.5,0
		C13.2,79,9.2,75.6,9.2,70C9,54.3,9,38.7,9.2,23c0.1-5.4,4-9,9.4-9c28-0.1,56-0.1,84,0c5.4,0,9.3,3.7,9.3,9c0.2,15.7,0.2,31.3,0,47
		c-0.1,5.8-4.1,9.1-10.3,9.1c-15.2,0.1-30.3,0.3-45.5-0.1c-6.1-0.2-9.4,1.9-10.9,7.6C44.5,89,43.3,91.2,41.9,94.8z"/>
</g>
</svg>
