<?xml version="1.0" encoding="utf-8"?>
<!-- Generator: Adobe Illustrator 20.1.0, SVG Export Plug-In . SVG Version: 6.00 Build 0)  -->
<svg version="1.1" id="Layer_1" xmlns="http://www.w3.org/2000/svg" xmlns:xlink="http://www.w3.org/1999/xlink" x="0px" y="0px"
	 viewBox="0 0 46.4 46.4" style="enable-background:new 0 0 46.4 46.4;" xml:space="preserve">
<style type="text/css">
	.st0{fill:#6445A3;}
	.st1{fill:#FFFFFF;}
</style>
<circle class="st0" cx="23.2" cy="23.2" r="23.2"/>
<path class="st1" d="M24,31.8c0-0.3,0-0.4-0.1-0.7c-0.1-0.2-0.1-0.4-0.2-0.6s-0.2-0.4-0.3-0.6c-0.2-0.2-0.3-0.4-0.4-0.5
	c-0.1-0.2-0.3-0.3-0.4-0.5c-0.2-0.2-0.4-0.4-0.4-0.4c-0.1-0.1-0.3-0.3-0.5-0.4c-0.3-0.2-0.4-0.4-0.5-0.4s-0.3-0.2-0.5-0.4
	c-0.3-0.2-0.4-0.4-0.5-0.4c-0.2,0-0.4,0-0.9,0c-0.6,0-1.2,0-1.8,0.1c-0.6,0.1-1.2,0.2-1.9,0.4c-0.6,0.2-1.1,0.4-1.7,0.8
	s-0.9,0.7-1.1,1.2s-0.4,1.1-0.4,1.9s0.2,1.5,0.6,2c0.4,0.6,1,1.1,1.6,1.4s1.3,0.6,2,0.8c0.7,0.2,1.4,0.3,2.1,0.3s1.3-0.1,1.9-0.2
	c0.6-0.2,1.1-0.4,1.7-0.7c0.5-0.3,1-0.7,1.2-1.2C23.8,33.1,24,32.5,24,31.8z M21.9,17.2c0-0.7-0.1-1.4-0.3-2.2s-0.4-1.5-0.8-2.2
	S20,11.5,19.4,11s-1.3-0.7-2-0.7c-1.1,0-1.9,0.4-2.5,1.1S14,13.1,14,14.2c0,0.5,0.1,1.1,0.2,1.7c0.1,0.6,0.4,1.1,0.6,1.8
	c0.3,0.6,0.6,1.1,1,1.6c0.4,0.5,0.8,0.9,1.3,1.1s1.1,0.4,1.7,0.4c1.1,0,1.9-0.4,2.4-1.1C21.7,19.2,21.9,18.3,21.9,17.2z M19.7,9.2
	h7.4l-2.3,1.3h-2.3c0.8,0.5,1.4,1.2,1.9,2.1s0.7,1.9,0.7,2.8c0,0.8-0.1,1.6-0.4,2.2s-0.6,1.1-1,1.6c-0.4,0.4-0.7,0.8-1.1,1.1
	c-0.4,0.4-0.7,0.7-1,1.1s-0.4,0.7-0.4,1.1c0,0.3,0.1,0.6,0.3,0.9s0.4,0.5,0.7,0.8c0.3,0.3,0.6,0.5,1,0.8s0.7,0.6,1.1,1
	s0.7,0.7,1,1.1s0.5,0.9,0.7,1.4s0.3,1.1,0.3,1.8c0,1.9-0.8,3.4-2.4,4.8c-1.7,1.5-4.1,2.2-7.1,2.2c-0.7,0-1.3-0.1-2-0.2
	s-1.4-0.3-2-0.5c-0.7-0.3-1.3-0.6-1.9-1c-0.5-0.4-1-0.9-1.3-1.5c-0.3-0.5-0.4-1.1-0.4-1.9c0-0.7,0.2-1.4,0.6-2.3
	c0.4-0.7,0.9-1.3,1.6-1.9c0.7-0.5,1.6-1,2.5-1.2s1.8-0.4,2.6-0.6c0.8-0.1,1.7-0.2,2.6-0.3c-0.7-1-1.1-1.8-1.1-2.6c0-0.2,0-0.3,0-0.4
	s0.1-0.3,0.1-0.4s0.1-0.2,0.2-0.4s0.1-0.3,0.1-0.4c-0.4,0.1-0.9,0.1-1.1,0.1c-1.7,0-3.1-0.5-4.3-1.7s-2-2.4-2-4.1
	c0-1.6,0.5-3,1.6-4.2c1.1-1.1,2.4-1.9,4-2.3C17.6,9.2,18.7,9.2,19.7,9.2z M37.3,13.5v2.2H33V20h-2.2v-4.3h-4.3v-2.2h4.3V9.2H33v4.3
	H37.3z"/>
</svg>
