<?xml version="1.0" encoding="utf-8"?>
<!-- Generator: Adobe Illustrator 20.1.0, SVG Export Plug-In . SVG Version: 6.00 Build 0)  -->
<svg version="1.1" id="Layer_1" xmlns="http://www.w3.org/2000/svg" xmlns:xlink="http://www.w3.org/1999/xlink" x="0px" y="0px"
	 viewBox="0 0 128.4 110.3" enable-background="new 0 0 128.4 110.3" xml:space="preserve">
<g>
	<g>
		<path fill="#6445A3" d="M13,107.8c-5.8,0-10.5-4.7-10.5-10.5V47.7c0-5.8,4.7-10.5,10.5-10.5h23.1c5.8,0,10.5,4.7,10.5,10.5v49.5
			c0,5.8-4.7,10.5-10.5,10.5H13z"/>
		<path fill="#6445A3" d="M36.2,39.7c4.4,0,8,3.6,8,8v49.5c0,4.4-3.6,8-8,8H13c-4.4,0-8-3.6-8-8V47.7c0-4.4,3.6-8,8-8H36.2
			 M36.2,34.7H13c-7.2,0-13,5.9-13,13v49.5c0,7.2,5.9,13,13,13h23.1c7.2,0,13-5.9,13-13V47.7C49.2,40.6,43.4,34.7,36.2,34.7
			L36.2,34.7z"/>
	</g>
	<g>
		<path fill="#6445A3" d="M75.6,5c3.5,0,10,1.8,13.3,13.7c0,0,1.5,16.1-1.5,22h25.3c0,0,15.2,2.4,9.5,17.5c0,0,2.7,10.1-2.7,14
			c0,0,0.6,11.6-4.8,14.9c0,0-1.2,13.4-6.5,13.4c-5.4,0-49.1,0-49.1,0s-9.2-2.4-9.2-6.5c0-4.2-0.2-42.6-0.2-42.6s20.1-18,20.1-31.7
			c0-13.7,3.3-14.3,3.3-14.3S74.1,5,75.6,5 M75.6,0L75.6,0c-1.7,0-3.1,0.3-3.7,0.5c-7,1.7-7,14.8-7,19.1c0,9.3-13.7,23.7-18.4,28
			L44.7,49l0,2.2c0,0.4,0.2,38.5,0.2,42.6c0,7.5,9.9,10.6,13,11.4l0.6,0.2h0.6h49.1c8,0,10.5-10.3,11.3-15.8c4.2-4.2,5-11.4,5-15.3
			c4.2-5,3.5-12.5,2.8-15.8c1.3-4.1,1.9-9.5-1-14.4c-4-6.8-12-8.3-12.9-8.4l-0.4-0.1h-0.4H93.8c0.9-7.1,0.3-15.4,0.1-17.5l0-0.5
			l-0.1-0.4c-1.8-6.3-4.6-11-8.3-13.9C81.7,0.6,78,0,75.6,0L75.6,0z"/>
	</g>
</g>
</svg>
