<?xml version="1.0" encoding="utf-8"?>
<!-- Generator: Adobe Illustrator 20.1.0, SVG Export Plug-In . SVG Version: 6.00 Build 0)  -->
<svg version="1.1" id="Layer_1" xmlns="http://www.w3.org/2000/svg" xmlns:xlink="http://www.w3.org/1999/xlink" x="0px" y="0px"
	 viewBox="0 0 102.5 102.8" enable-background="new 0 0 102.5 102.8" xml:space="preserve">
<path fill="#6445A3" d="M101.6,16.9c1.2,2.1,1.2,4.6,0.1,6.7c-0.6,1.2-1.3,2.3-2.2,3.2c-21.2,21.4-42.6,42.7-63.9,64
	c-1.2,1.2-3,2.1-4.7,2.7c-8.1,3.1-16.2,6.1-24.4,8.8c-1.6,0.6-4.5,0.7-5.3-0.3c-1.1-1.3-1.5-4.1-0.9-5.8c2.8-8.5,6-17,9.2-25.4
	c0.6-1.6,1.8-3.2,3-4.5C33.2,45.6,54.1,24.7,74.9,3.9c5.2-5.2,9.5-5.2,14.7-0.1c3.3,3.3,6.7,6.5,9.8,9.9
	C100.3,14.7,100.9,15.7,101.6,16.9z M79.8,39.8c-5.5-5.6-11.3-11.4-17-17.1c-15.6,15.6-31.4,31.5-47,47.1c5.5,5.6,11.3,11.4,17,17.2
	C48.5,71.2,64.3,55.3,79.8,39.8z M84.3,36.5c4.2-4.3,8.5-8.6,12.7-13c2.1-2.2,2-4.4-0.1-6.5c-3.7-3.8-7.3-7.8-11.4-11.1
	c-1.4-1.1-5-1.1-6.4,0c-4.7,3.8-8.9,8.4-13,12.3C72.4,24.3,78.2,30.2,84.3,36.5z M27.4,90.5c-5-5.3-9.9-10.5-15-15.9
	c-1.4,3.7-3,7.3-4,11.2c-0.4,1.7,0.4,3.9,1.4,5.5C12,95,15,95.8,19,93.6C21.9,92.1,25.2,91.3,27.4,90.5z"/>
</svg>
